<svg width="33" height="32" viewBox="0 0 33 32" fill="none" xmlns="http://www.w3.org/2000/svg">
<path d="M6.93642 13.1474C9.49162 18.7125 14.0383 23.1372 19.691 25.5359L20.5971 25.9396C22.6703 26.8633 25.1072 26.1616 26.3716 24.2769L27.5558 22.512C27.9408 21.9381 27.8236 21.1652 27.2858 20.7313L23.2699 17.4916C22.6802 17.0157 21.8128 17.1267 21.3615 17.7355L20.1192 19.4119C16.9315 17.8393 14.3434 15.2513 12.771 12.0636L14.4472 10.8213C15.0562 10.3701 15.167 9.50269 14.6911 8.91285L11.4513 4.89693C11.0175 4.35923 10.2449 4.24193 9.67103 4.62669L7.89391 5.81829C5.99746 7.08989 5.29962 9.54703 6.24459 11.6256L6.93538 13.1451L6.93642 13.1474Z" fill="#3CB27F"/>
</svg>
